Coordinates
version=1
nRows=20
nColumns=17
inDegrees=yes

Units are S.I. units (second, meters, Newtons, ...)
If the header above contains a line with 'inDegrees', this indicates whether rotational values are in degrees (yes) or radians (no).

endheader
time	pelvis_list	pelvis_rotation	pelvis_tilt	pelvis_tx	pelvis_ty	pelvis_tz	hip_adduction_r	hip_rotation_r	hip_flexion_r	hip_adduction_l	hip_rotation_l	hip_flexion_l	knee_flexion_r	knee_flexion_l	ankle_dorsiflexion_r	ankle_dorsiflexion_l
      1.66700000	     -1.35712998	     -0.07886271	     -1.43262747	      0.58318184	      1.03122764	     -0.01017337	      1.01542867	     -9.60383542	     28.46601886	     -1.91056070	      0.34894093	     -0.31630156	    -44.09367565	     -8.68913387	     -0.16258316	      7.77581661
      1.68300000	     -1.05066109	     -0.09538755	     -1.60202765	      0.58129612	      1.02857056	     -0.01078902	      1.29515271	    -10.44902541	     28.74818833	     -2.24929359	      0.51612651	     -1.44079017	    -38.29203182	     -8.29403114	     -0.31011472	      8.63278706
      1.70000000	     -0.78870577	     -0.08121563	     -1.76610052	      0.58032282	      1.02563146	     -0.01090402	      1.69470296	    -11.16983017	     28.65523470	     -2.49764289	      0.63323874	     -2.74922411	    -31.98446400	     -7.66211653	     -0.49416245	      9.43003435
      1.71700000	     -0.40506581	     -0.05523820	     -1.76415840	      0.57906746	      1.02280768	     -0.01088722	      1.84180610	    -11.44252065	     28.18213657	     -2.88185711	      0.74310137	     -4.14409303	    -25.45506722	     -7.18007495	     -0.78072719	     10.21374737
      1.73300000	      0.02906251	     -0.02317739	     -1.87167344	      0.57806298	      1.01914894	     -0.01094922	      1.72214808	    -11.10929908	     27.69983053	     -3.34391317	      0.83427192	     -5.46779420	    -19.07968876	     -6.65937907	     -0.90196385	     11.04777043
      1.75000000	      0.49451199	      0.00924580	     -1.86469153	      0.57783138	      1.01538480	     -0.01074533	      1.23857726	    -10.20074328	     26.97654080	     -3.81538634	      0.88183299	     -6.93780725	    -13.09807214	     -6.19360816	     -0.79039443	     11.88002292
      1.76700000	      0.90969998	      0.12740161	     -1.85013954	      0.57791246	      1.01154225	     -0.01027123	      0.55943489	     -8.98018789	     26.27274711	     -4.18333650	      0.78899354	     -8.37617788	     -7.86964628	     -5.84142041	     -0.47955074	     12.66730584
      1.78300000	      1.26629657	      0.38234616	     -1.79481188	      0.57841954	      1.00780551	     -0.00993974	     -0.20705185	     -7.79403220	     25.65741780	     -4.47801048	      0.47317314	     -9.94142247	     -3.75083269	     -5.36420799	      0.11439023	     13.28269432
      1.80000000	      1.56237817	      0.55406886	     -1.78992782	      0.57874281	      1.00423625	     -0.00931399	     -0.89168299	     -6.64182255	     25.34618375	     -4.68964306	      0.19831073	    -11.16852686	     -0.96534890	     -5.43587287	      0.68548408	     13.96815115
      1.81700000	      1.82475098	      0.86010295	     -1.77429756	      0.57905976	      1.00124168	     -0.00867991	     -1.42498049	     -5.89214630	     25.36655248	     -4.84558120	     -0.23264171	    -12.15407107	      0.12118608	     -5.99627631	      1.16669965	     14.61207166
      1.83300000	      1.87612104	      1.27557156	     -1.75755824	      0.57953179	      0.99884350	     -0.00791857	     -1.56565110	     -5.53532356	     25.53302980	     -4.77911699	     -0.85180429	    -13.01003632	     -0.11366483	     -6.81587724	      1.15170942	     15.15194963
      1.85000000	      1.81038810	      1.42240833	     -1.75918145	      0.58094463	      0.99692516	     -0.00610947	     -1.46492952	     -5.04633954	     26.08128291	     -4.54679468	     -1.17311615	    -13.72664422	     -1.98298246	     -7.94762508	      0.83390374	     15.54635173
      1.86700000	      1.73320834	      1.49936226	     -1.75545626	      0.58220772	      0.99544773	     -0.00408485	     -1.28785283	     -4.59804939	     26.76323055	     -4.30503044	     -1.41513942	    -14.19904292	     -4.67681436	     -9.51377738	     -0.06377455	     15.76371350
      1.88300000	      1.67990961	      1.83552335	     -1.76090928	      0.58488873	      0.99454820	     -0.00248367	     -1.13487606	     -4.48373508	     27.25773497	     -4.10570285	     -1.94144978	    -14.71406744	     -7.53891912	    -11.05233563	     -1.19810895	     15.54286542
      1.90000000	      1.63826378	      2.09663331	     -1.76686691	      0.58802225	      0.99416240	     -0.00034253	     -1.02174525	     -4.29251513	     27.67661566	     -3.92388360	     -2.47067475	    -14.99112491	    -10.44838518	    -13.01366894	     -2.35816832	     15.03056385
      1.91700000	      1.64925503	      2.40376862	     -1.63300680	      0.59121272	      0.99476513	      0.00167478	     -1.00521742	     -4.21964167	     28.00308456	     -3.84550096	     -3.11711061	    -15.03046050	    -13.62870762	    -15.59123002	     -3.10558891	     14.16937577
      1.93300000	      1.65365140	      2.54414005	     -1.42141081	      0.59541182	      0.99600505	      0.00364025	     -1.07233223	     -3.96869600	     28.08736388	     -3.82178037	     -3.63540778	    -14.78474250	    -16.72880313	    -18.80948787	     -3.31809471	     12.85597764
      1.95000000	      1.60762636	      2.87646036	     -1.17463569	      0.59917322	      0.99774781	      0.00555625	     -1.09745254	     -3.89332805	     27.89035299	     -3.72037839	     -4.29018866	    -13.80622628	    -19.44514284	    -23.24225231	     -3.22742489	     11.16842693
      1.96700000	      1.75596338	      3.18393550	     -1.05686962	      0.60188146	      0.99929722	      0.00751600	     -1.26878180	     -3.96114332	     27.61087706	     -3.74136567	     -4.73395444	    -11.85637918	    -21.72823289	    -28.85550190	     -2.85001262	      8.78142903
      1.98300000	      1.71385943	      3.32128496	     -0.94723240	      0.60456183	      1.00092205	      0.00981897	     -1.17074397	     -4.00788455	     27.05393588	     -3.43330680	     -4.71857700	     -9.36187059	    -23.48898474	    -35.00435470	     -2.14827588	      5.38027546
